<svg xmlns="http://www.w3.org/2000/svg" width="48" height="48" fill="none" viewBox="0 0 48 48">
  <path fill="#5865F2" d="M37.862 11.266a32.987 32.987 0 0 0-8.142-2.525.124.124 0 0 0-.131.062 23.001 23.001 0 0 0-1.014 2.082 30.45 30.45 0 0 0-9.145 0 21.071 21.071 0 0 0-1.029-2.082.129.129 0 0 0-.13-.062 32.894 32.894 0 0 0-8.143 2.525.117.117 0 0 0-.053.046C4.889 19.06 3.468 26.616 4.165 34.08a.137.137 0 0 0 .052.093c3.422 2.513 6.736 4.038 9.989 5.05a.13.13 0 0 0 .14-.047 23.713 23.713 0 0 0 2.043-3.323.127.127 0 0 0-.07-.177 21.84 21.84 0 0 1-3.12-1.487.128.128 0 0 1-.012-.212c.21-.158.42-.321.62-.486a.124.124 0 0 1 .129-.018c6.546 2.99 13.633 2.99 20.102 0a.123.123 0 0 1 .131.016c.2.165.41.33.621.488a.128.128 0 0 1-.01.212 20.492 20.492 0 0 1-3.123 1.486.128.128 0 0 0-.067.178 26.63 26.63 0 0 0 2.042 3.322.127.127 0 0 0 .14.047c3.268-1.01 6.582-2.536 10.004-5.049a.129.129 0 0 0 .052-.092c.834-8.628-1.397-16.123-5.914-22.767a.101.101 0 0 0-.052-.048Zm-20.495 18.27c-1.971 0-3.595-1.81-3.595-4.032s1.592-4.032 3.595-4.032c2.018 0 3.626 1.826 3.595 4.032 0 2.222-1.593 4.031-3.595 4.031Zm13.29 0c-1.97 0-3.594-1.81-3.594-4.032s1.593-4.032 3.595-4.032c2.018 0 3.626 1.826 3.595 4.032 0 2.222-1.577 4.031-3.595 4.031Z"/>
</svg>
